<svg width="50" height="50" viewBox="0 0 50 50" fill="none" xmlns="http://www.w3.org/2000/svg">
<path d="M21.8828 0L18.7656 7.41895C18.1421 7.60599 17.581 7.91771 17.0199 8.22943L9.601 5.11222L5.11222 9.601L8.22943 17.0199C7.91771 17.6434 7.66833 18.1421 7.41895 18.7656L0 21.8828V28.1172L7.41895 31.2344C7.66833 31.8579 7.91771 32.3566 8.22943 32.98L5.11222 40.399L9.601 44.8878L17.0199 41.7706C17.581 42.0199 18.1421 42.3317 18.7656 42.581L21.8828 50H28.1172L31.2344 42.581C31.7955 42.3317 32.419 42.0823 32.98 41.7706L40.399 44.8878L44.8878 40.399L41.7706 32.98C42.02 32.4189 42.3317 31.7955 42.581 31.2344L50 28.1172V21.8828L42.581 18.7656C42.394 18.2045 42.0823 17.581 41.7706 17.0199L44.8878 9.601L40.399 5.11222L32.98 8.22943C32.419 7.98005 31.7955 7.66833 31.2344 7.41895L28.1172 0L21.8828 0ZM25 15.586C30.1746 15.586 34.3516 19.7631 34.3516 24.9377C34.3516 30.1122 30.1746 34.2893 25 34.2893C19.8254 34.2893 15.6484 30.1122 15.6484 24.9377C15.6484 19.7631 19.8254 15.586 25 15.586Z" fill="#6E0970"/>
</svg>
